<mxfile host="65bd71144e">
    <diagram id="LAFB9-h56CXM5LJl_jGw" name="Page-1">
        <mxGraphModel dx="2850" dy="1007" grid="1" gridSize="10" guides="1" tooltips="1" connect="1" arrows="1" fold="1" page="1" pageScale="1" pageWidth="850" pageHeight="1100" math="0" shadow="0">
            <root>
                <mxCell id="0"/>
                <mxCell id="1" parent="0"/>
                <mxCell id="164" value="" style="rounded=1;whiteSpace=wrap;html=1;arcSize=5;fillColor=#777777;" vertex="1" parent="1">
                    <mxGeometry x="440" y="380" width="180" height="320" as="geometry"/>
                </mxCell>
                <mxCell id="375" value="&lt;div style=&quot;text-align: justify;&quot;&gt;&lt;br&gt;&lt;/div&gt;" style="ellipse;whiteSpace=wrap;html=1;aspect=fixed;" vertex="1" parent="1">
                    <mxGeometry x="447.5" y="395" width="40" height="40" as="geometry"/>
                </mxCell>
                <mxCell id="376" value="" style="rounded=0;whiteSpace=wrap;html=1;fillColor=#000000;" vertex="1" parent="1">
                    <mxGeometry x="457.5" y="407.25" width="20" height="2.5" as="geometry"/>
                </mxCell>
                <mxCell id="377" value="" style="rounded=0;whiteSpace=wrap;html=1;fillColor=#000000;" vertex="1" parent="1">
                    <mxGeometry x="457.5" y="413.75" width="20" height="2.5" as="geometry"/>
                </mxCell>
                <mxCell id="378" value="" style="rounded=0;whiteSpace=wrap;html=1;fillColor=#000000;" vertex="1" parent="1">
                    <mxGeometry x="457.5" y="420.25" width="20" height="2.5" as="geometry"/>
                </mxCell>
                <mxCell id="321" value="" style="ellipse;whiteSpace=wrap;html=1;aspect=fixed;" vertex="1" parent="1">
                    <mxGeometry x="489.5" y="395" width="40" height="40" as="geometry"/>
                </mxCell>
                <mxCell id="359" value="" style="html=1;dashed=0;aspect=fixed;verticalLabelPosition=bottom;verticalAlign=top;align=center;shape=mxgraph.gmdl.edit;strokeColor=none;fillColor=#000000;shadow=0;sketch=0;" vertex="1" parent="1">
                    <mxGeometry x="499.5" y="405" width="20" height="20" as="geometry"/>
                </mxCell>
                <mxCell id="258" value="" style="html=1;verticalLabelPosition=bottom;labelBackgroundColor=#ffffff;verticalAlign=top;shadow=0;dashed=0;strokeWidth=1;shape=mxgraph.ios7ui.iconGrid;fillColor=#000000;gridSize=3,3;" vertex="1" parent="1">
                    <mxGeometry x="448.5" y="620.5" width="40" height="40" as="geometry"/>
                </mxCell>
                <mxCell id="259" value="" style="html=1;verticalLabelPosition=bottom;labelBackgroundColor=#ffffff;verticalAlign=top;shadow=0;dashed=0;strokeWidth=1;shape=mxgraph.ios7ui.iconGrid;fillColor=#000000;gridSize=3,3;" vertex="1" parent="1">
                    <mxGeometry x="489.5" y="620.5" width="40" height="40" as="geometry"/>
                </mxCell>
                <mxCell id="260" value="" style="html=1;verticalLabelPosition=bottom;labelBackgroundColor=#ffffff;verticalAlign=top;shadow=0;dashed=0;strokeWidth=1;shape=mxgraph.ios7ui.iconGrid;fillColor=#000000;gridSize=3,3;" vertex="1" parent="1">
                    <mxGeometry x="530.5" y="620.5" width="40" height="40" as="geometry"/>
                </mxCell>
                <mxCell id="261" value="" style="html=1;verticalLabelPosition=bottom;labelBackgroundColor=#ffffff;verticalAlign=top;shadow=0;dashed=0;strokeWidth=1;shape=mxgraph.ios7ui.iconGrid;fillColor=#000000;gridSize=3,3;" vertex="1" parent="1">
                    <mxGeometry x="571.5" y="620.5" width="40" height="40" as="geometry"/>
                </mxCell>
                <mxCell id="2" value="" style="rounded=1;whiteSpace=wrap;html=1;arcSize=5;" vertex="1" parent="1">
                    <mxGeometry x="10" y="10" width="180" height="320" as="geometry"/>
                </mxCell>
                <mxCell id="4" value="" style="rounded=1;whiteSpace=wrap;html=1;arcSize=5;" vertex="1" parent="1">
                    <mxGeometry x="220" y="10" width="180" height="320" as="geometry"/>
                </mxCell>
                <mxCell id="5" value="" style="rounded=1;whiteSpace=wrap;html=1;arcSize=5;fillColor=#777777;" vertex="1" parent="1">
                    <mxGeometry x="440" y="10" width="180" height="320" as="geometry"/>
                </mxCell>
                <mxCell id="6" value="" style="rounded=1;whiteSpace=wrap;html=1;arcSize=5;fillColor=#777777;" vertex="1" parent="1">
                    <mxGeometry x="650" y="10" width="180" height="320" as="geometry"/>
                </mxCell>
                <mxCell id="7" value="" style="rounded=1;whiteSpace=wrap;html=1;arcSize=5;" vertex="1" parent="1">
                    <mxGeometry x="11" y="380" width="180" height="320" as="geometry"/>
                </mxCell>
                <mxCell id="8" value="&lt;b&gt;&lt;i&gt;&lt;font style=&quot;font-size: 36px;&quot;&gt;RATZ!&lt;/font&gt;&lt;/i&gt;&lt;/b&gt;" style="rounded=1;whiteSpace=wrap;html=1;" vertex="1" parent="1">
                    <mxGeometry x="20" y="90" width="160" height="50" as="geometry"/>
                </mxCell>
                <mxCell id="10" value="&lt;div style=&quot;text-align: justify;&quot;&gt;&lt;b style=&quot;background-color: transparent;&quot;&gt;&lt;font style=&quot;font-size: 18px;&quot;&gt;LEVELS&lt;/font&gt;&lt;/b&gt;&lt;/div&gt;" style="rounded=1;whiteSpace=wrap;html=1;" vertex="1" parent="1">
                    <mxGeometry x="30" y="170" width="140" height="30" as="geometry"/>
                </mxCell>
                <mxCell id="11" value="&lt;font style=&quot;font-size: 18px;&quot;&gt;&lt;b&gt;EDITOR&lt;/b&gt;&lt;/font&gt;" style="rounded=1;whiteSpace=wrap;html=1;" vertex="1" parent="1">
                    <mxGeometry x="30" y="210" width="140" height="30" as="geometry"/>
                </mxCell>
                <mxCell id="12" value="&lt;b&gt;&lt;font style=&quot;font-size: 18px;&quot;&gt;OPTION&lt;/font&gt;&lt;/b&gt;" style="rounded=1;whiteSpace=wrap;html=1;" vertex="1" parent="1">
                    <mxGeometry x="30" y="250" width="140" height="30" as="geometry"/>
                </mxCell>
                <mxCell id="15" value="" style="shape=mxgraph.signs.animals.moose;html=1;pointerEvents=1;fillColor=#000000;strokeColor=none;verticalLabelPosition=bottom;verticalAlign=top;align=center;" vertex="1" parent="1">
                    <mxGeometry x="52" y="26" width="98" height="65" as="geometry"/>
                </mxCell>
                <mxCell id="16" value="&lt;b&gt;&lt;i&gt;&lt;font style=&quot;font-size: 36px;&quot;&gt;LEVELS&lt;/font&gt;&lt;/i&gt;&lt;/b&gt;" style="rounded=1;whiteSpace=wrap;html=1;" vertex="1" parent="1">
                    <mxGeometry x="230" y="33.5" width="160" height="50" as="geometry"/>
                </mxCell>
                <mxCell id="18" value="&lt;div style=&quot;text-align: justify;&quot;&gt;&lt;b style=&quot;background-color: transparent;&quot;&gt;&lt;font style=&quot;font-size: 18px;&quot;&gt;1-1&lt;/font&gt;&lt;/b&gt;&lt;/div&gt;" style="rounded=1;whiteSpace=wrap;html=1;" vertex="1" parent="1">
                    <mxGeometry x="240" y="112" width="40" height="39" as="geometry"/>
                </mxCell>
                <mxCell id="19" value="&lt;div style=&quot;text-align: justify;&quot;&gt;&lt;b style=&quot;background-color: transparent;&quot;&gt;&lt;font style=&quot;font-size: 18px;&quot;&gt;1-2&lt;/font&gt;&lt;/b&gt;&lt;/div&gt;" style="rounded=1;whiteSpace=wrap;html=1;" vertex="1" parent="1">
                    <mxGeometry x="290" y="112" width="40" height="39" as="geometry"/>
                </mxCell>
                <mxCell id="20" value="&lt;div style=&quot;text-align: justify;&quot;&gt;&lt;b style=&quot;background-color: transparent;&quot;&gt;&lt;font style=&quot;font-size: 18px;&quot;&gt;1-3&lt;/font&gt;&lt;/b&gt;&lt;/div&gt;" style="rounded=1;whiteSpace=wrap;html=1;" vertex="1" parent="1">
                    <mxGeometry x="340" y="112" width="40" height="39" as="geometry"/>
                </mxCell>
                <mxCell id="21" value="&lt;div style=&quot;text-align: justify;&quot;&gt;&lt;b style=&quot;background-color: transparent;&quot;&gt;&lt;font style=&quot;font-size: 18px;&quot;&gt;2-1&lt;/font&gt;&lt;/b&gt;&lt;/div&gt;" style="rounded=1;whiteSpace=wrap;html=1;" vertex="1" parent="1">
                    <mxGeometry x="240" y="161" width="40" height="39" as="geometry"/>
                </mxCell>
                <mxCell id="22" value="&lt;div style=&quot;text-align: justify;&quot;&gt;&lt;b style=&quot;background-color: transparent;&quot;&gt;&lt;font style=&quot;font-size: 18px;&quot;&gt;2-2&lt;/font&gt;&lt;/b&gt;&lt;/div&gt;" style="rounded=1;whiteSpace=wrap;html=1;" vertex="1" parent="1">
                    <mxGeometry x="290" y="161" width="40" height="39" as="geometry"/>
                </mxCell>
                <mxCell id="23" value="&lt;b&gt;&lt;font style=&quot;font-size: 18px;&quot;&gt;2-3&lt;/font&gt;&lt;/b&gt;" style="rounded=1;whiteSpace=wrap;html=1;" vertex="1" parent="1">
                    <mxGeometry x="340" y="161" width="40" height="39" as="geometry"/>
                </mxCell>
                <mxCell id="27" value="&lt;b&gt;&lt;font style=&quot;font-size: 18px;&quot;&gt;3-1&lt;/font&gt;&lt;/b&gt;" style="rounded=1;whiteSpace=wrap;html=1;" vertex="1" parent="1">
                    <mxGeometry x="240" y="211" width="40" height="39" as="geometry"/>
                </mxCell>
                <mxCell id="28" value="&lt;b&gt;&lt;font style=&quot;font-size: 18px;&quot;&gt;3-2&lt;/font&gt;&lt;/b&gt;" style="rounded=1;whiteSpace=wrap;html=1;" vertex="1" parent="1">
                    <mxGeometry x="290" y="211" width="40" height="39" as="geometry"/>
                </mxCell>
                <mxCell id="29" value="&lt;b&gt;&lt;font style=&quot;font-size: 18px;&quot;&gt;3-3&lt;/font&gt;&lt;/b&gt;" style="rounded=1;whiteSpace=wrap;html=1;" vertex="1" parent="1">
                    <mxGeometry x="340" y="211" width="40" height="39" as="geometry"/>
                </mxCell>
                <mxCell id="42" value="" style="ellipse;whiteSpace=wrap;html=1;aspect=fixed;" vertex="1" parent="1">
                    <mxGeometry x="290" y="270" width="40" height="40" as="geometry"/>
                </mxCell>
                <mxCell id="43" value="" style="ellipse;whiteSpace=wrap;html=1;aspect=fixed;" vertex="1" parent="1">
                    <mxGeometry x="240" y="270" width="40" height="40" as="geometry"/>
                </mxCell>
                <mxCell id="44" value="" style="ellipse;whiteSpace=wrap;html=1;aspect=fixed;" vertex="1" parent="1">
                    <mxGeometry x="340" y="270" width="40" height="40" as="geometry"/>
                </mxCell>
                <mxCell id="52" value="" style="rounded=1;whiteSpace=wrap;html=1;arcSize=5;" vertex="1" parent="1">
                    <mxGeometry x="220" y="380" width="180" height="320" as="geometry"/>
                </mxCell>
                <mxCell id="54" value="MAIN" style="text;html=1;align=center;verticalAlign=middle;resizable=0;points=[];autosize=1;strokeColor=none;fillColor=none;" vertex="1" parent="1">
                    <mxGeometry x="76" y="338" width="50" height="30" as="geometry"/>
                </mxCell>
                <mxCell id="55" value="LEVEL SELECT" style="text;html=1;align=center;verticalAlign=middle;resizable=0;points=[];autosize=1;strokeColor=none;fillColor=none;" vertex="1" parent="1">
                    <mxGeometry x="255" y="338" width="110" height="30" as="geometry"/>
                </mxCell>
                <mxCell id="56" value="PAUSE" style="text;html=1;align=center;verticalAlign=middle;resizable=0;points=[];autosize=1;strokeColor=none;fillColor=none;" vertex="1" parent="1">
                    <mxGeometry x="500" y="338" width="60" height="30" as="geometry"/>
                </mxCell>
                <mxCell id="57" value="OPTION" style="text;html=1;align=center;verticalAlign=middle;resizable=0;points=[];autosize=1;strokeColor=none;fillColor=none;" vertex="1" parent="1">
                    <mxGeometry x="705" y="338" width="70" height="30" as="geometry"/>
                </mxCell>
                <mxCell id="58" value="EDITOR" style="text;html=1;align=center;verticalAlign=middle;resizable=0;points=[];autosize=1;strokeColor=none;fillColor=none;" vertex="1" parent="1">
                    <mxGeometry x="65" y="710" width="70" height="30" as="geometry"/>
                </mxCell>
                <mxCell id="59" value="LEVEL" style="text;html=1;align=center;verticalAlign=middle;resizable=0;points=[];autosize=1;strokeColor=none;fillColor=none;" vertex="1" parent="1">
                    <mxGeometry x="278" y="710" width="60" height="30" as="geometry"/>
                </mxCell>
                <mxCell id="61" value="" style="ellipse;whiteSpace=wrap;html=1;aspect=fixed;" vertex="1" parent="1">
                    <mxGeometry x="230" y="395" width="40" height="40" as="geometry"/>
                </mxCell>
                <mxCell id="63" value="&lt;div style=&quot;text-align: justify;&quot;&gt;&lt;br&gt;&lt;/div&gt;" style="ellipse;whiteSpace=wrap;html=1;aspect=fixed;" vertex="1" parent="1">
                    <mxGeometry x="20" y="395" width="40" height="40" as="geometry"/>
                </mxCell>
                <mxCell id="64" value="&lt;b&gt;&lt;i&gt;&lt;font style=&quot;font-size: 36px;&quot;&gt;PAUSE&lt;/font&gt;&lt;/i&gt;&lt;/b&gt;" style="rounded=1;whiteSpace=wrap;html=1;" vertex="1" parent="1">
                    <mxGeometry x="450" y="90" width="160" height="50" as="geometry"/>
                </mxCell>
                <mxCell id="65" value="&lt;div style=&quot;text-align: justify;&quot;&gt;&lt;b style=&quot;background-color: transparent;&quot;&gt;&lt;font style=&quot;font-size: 18px;&quot;&gt;BACK&lt;/font&gt;&lt;/b&gt;&lt;/div&gt;" style="rounded=1;whiteSpace=wrap;html=1;" vertex="1" parent="1">
                    <mxGeometry x="460" y="170" width="140" height="30" as="geometry"/>
                </mxCell>
                <mxCell id="66" value="&lt;span style=&quot;font-size: 18px;&quot;&gt;&lt;b&gt;MAIN MENU&lt;/b&gt;&lt;/span&gt;" style="rounded=1;whiteSpace=wrap;html=1;" vertex="1" parent="1">
                    <mxGeometry x="460" y="210" width="140" height="30" as="geometry"/>
                </mxCell>
                <mxCell id="67" value="&lt;b&gt;&lt;font style=&quot;font-size: 18px;&quot;&gt;OPTION&lt;/font&gt;&lt;/b&gt;" style="rounded=1;whiteSpace=wrap;html=1;" vertex="1" parent="1">
                    <mxGeometry x="460" y="250" width="140" height="30" as="geometry"/>
                </mxCell>
                <mxCell id="74" value="" style="shape=mxgraph.signs.animals.moose;html=1;pointerEvents=1;fillColor=#000000;strokeColor=none;verticalLabelPosition=bottom;verticalAlign=top;align=center;" vertex="1" parent="1">
                    <mxGeometry x="481" y="26" width="98" height="65" as="geometry"/>
                </mxCell>
                <mxCell id="75" value="&lt;b&gt;&lt;i&gt;&lt;font style=&quot;font-size: 36px;&quot;&gt;OPTION&lt;/font&gt;&lt;/i&gt;&lt;/b&gt;" style="rounded=1;whiteSpace=wrap;html=1;" vertex="1" parent="1">
                    <mxGeometry x="660" y="33.5" width="160" height="50" as="geometry"/>
                </mxCell>
                <mxCell id="76" value="&lt;div style=&quot;text-align: justify;&quot;&gt;&lt;span style=&quot;font-size: 18px;&quot;&gt;&lt;b&gt;BACK&lt;/b&gt;&lt;/span&gt;&lt;/div&gt;" style="rounded=1;whiteSpace=wrap;html=1;" vertex="1" parent="1">
                    <mxGeometry x="670" y="112" width="140" height="30" as="geometry"/>
                </mxCell>
                <mxCell id="77" value="&lt;span style=&quot;font-size: 18px;&quot;&gt;&lt;b&gt;SOUND&lt;/b&gt;&lt;/span&gt;" style="rounded=1;whiteSpace=wrap;html=1;" vertex="1" parent="1">
                    <mxGeometry x="670" y="152" width="140" height="30" as="geometry"/>
                </mxCell>
                <mxCell id="78" value="&lt;b&gt;&lt;font style=&quot;font-size: 18px;&quot;&gt;MUSIC&lt;/font&gt;&lt;/b&gt;" style="rounded=1;whiteSpace=wrap;html=1;" vertex="1" parent="1">
                    <mxGeometry x="670" y="192" width="140" height="30" as="geometry"/>
                </mxCell>
                <mxCell id="79" value="&lt;b&gt;&lt;font style=&quot;font-size: 18px;&quot;&gt;RUMBLE&lt;/font&gt;&lt;/b&gt;" style="rounded=1;whiteSpace=wrap;html=1;" vertex="1" parent="1">
                    <mxGeometry x="670" y="230" width="140" height="30" as="geometry"/>
                </mxCell>
                <mxCell id="80" value="&lt;b&gt;&lt;font style=&quot;font-size: 18px;&quot;&gt;RESET&lt;/font&gt;&lt;/b&gt;" style="rounded=1;whiteSpace=wrap;html=1;" vertex="1" parent="1">
                    <mxGeometry x="670" y="270" width="140" height="30" as="geometry"/>
                </mxCell>
                <mxCell id="89" value="" style="html=1;verticalLabelPosition=bottom;labelBackgroundColor=#ffffff;verticalAlign=top;shadow=0;dashed=0;strokeWidth=1;shape=mxgraph.ios7ui.iconGrid;fillColor=#000000;gridSize=3,3;" vertex="1" parent="1">
                    <mxGeometry x="18.5" y="577" width="40" height="40" as="geometry"/>
                </mxCell>
                <mxCell id="90" value="" style="html=1;verticalLabelPosition=bottom;labelBackgroundColor=#ffffff;verticalAlign=top;shadow=0;dashed=0;strokeWidth=1;shape=mxgraph.ios7ui.iconGrid;fillColor=#000000;gridSize=3,3;" vertex="1" parent="1">
                    <mxGeometry x="59.5" y="577" width="40" height="40" as="geometry"/>
                </mxCell>
                <mxCell id="91" value="" style="html=1;verticalLabelPosition=bottom;labelBackgroundColor=#ffffff;verticalAlign=top;shadow=0;dashed=0;strokeWidth=1;shape=mxgraph.ios7ui.iconGrid;fillColor=#000000;gridSize=3,3;" vertex="1" parent="1">
                    <mxGeometry x="100.5" y="577" width="40" height="40" as="geometry"/>
                </mxCell>
                <mxCell id="92" value="" style="html=1;verticalLabelPosition=bottom;labelBackgroundColor=#ffffff;verticalAlign=top;shadow=0;dashed=0;strokeWidth=1;shape=mxgraph.ios7ui.iconGrid;fillColor=#000000;gridSize=3,3;" vertex="1" parent="1">
                    <mxGeometry x="141.5" y="577" width="40" height="40" as="geometry"/>
                </mxCell>
                <mxCell id="93" value="" style="html=1;verticalLabelPosition=bottom;labelBackgroundColor=#ffffff;verticalAlign=top;shadow=0;dashed=0;strokeWidth=1;shape=mxgraph.ios7ui.iconGrid;fillColor=#000000;gridSize=3,3;" vertex="1" parent="1">
                    <mxGeometry x="18.5" y="536" width="40" height="40" as="geometry"/>
                </mxCell>
                <mxCell id="94" value="" style="html=1;verticalLabelPosition=bottom;labelBackgroundColor=#ffffff;verticalAlign=top;shadow=0;dashed=0;strokeWidth=1;shape=mxgraph.ios7ui.iconGrid;fillColor=#000000;gridSize=3,3;" vertex="1" parent="1">
                    <mxGeometry x="59.5" y="536" width="40" height="40" as="geometry"/>
                </mxCell>
                <mxCell id="95" value="" style="html=1;verticalLabelPosition=bottom;labelBackgroundColor=#ffffff;verticalAlign=top;shadow=0;dashed=0;strokeWidth=1;shape=mxgraph.ios7ui.iconGrid;fillColor=#000000;gridSize=3,3;" vertex="1" parent="1">
                    <mxGeometry x="100.5" y="536" width="40" height="40" as="geometry"/>
                </mxCell>
                <mxCell id="96" value="" style="html=1;verticalLabelPosition=bottom;labelBackgroundColor=#ffffff;verticalAlign=top;shadow=0;dashed=0;strokeWidth=1;shape=mxgraph.ios7ui.iconGrid;fillColor=#000000;gridSize=3,3;" vertex="1" parent="1">
                    <mxGeometry x="141.5" y="536" width="40" height="40" as="geometry"/>
                </mxCell>
                <mxCell id="97" value="" style="html=1;verticalLabelPosition=bottom;labelBackgroundColor=#ffffff;verticalAlign=top;shadow=0;dashed=0;strokeWidth=1;shape=mxgraph.ios7ui.iconGrid;fillColor=#000000;gridSize=3,3;" vertex="1" parent="1">
                    <mxGeometry x="18.5" y="495" width="40" height="40" as="geometry"/>
                </mxCell>
                <mxCell id="98" value="" style="html=1;verticalLabelPosition=bottom;labelBackgroundColor=#ffffff;verticalAlign=top;shadow=0;dashed=0;strokeWidth=1;shape=mxgraph.ios7ui.iconGrid;fillColor=#000000;gridSize=3,3;" vertex="1" parent="1">
                    <mxGeometry x="59.5" y="495" width="40" height="40" as="geometry"/>
                </mxCell>
                <mxCell id="99" value="" style="html=1;verticalLabelPosition=bottom;labelBackgroundColor=#ffffff;verticalAlign=top;shadow=0;dashed=0;strokeWidth=1;shape=mxgraph.ios7ui.iconGrid;fillColor=#000000;gridSize=3,3;" vertex="1" parent="1">
                    <mxGeometry x="100.5" y="495" width="40" height="40" as="geometry"/>
                </mxCell>
                <mxCell id="100" value="" style="html=1;verticalLabelPosition=bottom;labelBackgroundColor=#ffffff;verticalAlign=top;shadow=0;dashed=0;strokeWidth=1;shape=mxgraph.ios7ui.iconGrid;fillColor=#000000;gridSize=3,3;" vertex="1" parent="1">
                    <mxGeometry x="141.5" y="495" width="40" height="40" as="geometry"/>
                </mxCell>
                <mxCell id="101" value="" style="html=1;verticalLabelPosition=bottom;labelBackgroundColor=#ffffff;verticalAlign=top;shadow=0;dashed=0;strokeWidth=1;shape=mxgraph.ios7ui.iconGrid;fillColor=#000000;gridSize=3,3;" vertex="1" parent="1">
                    <mxGeometry x="18.5" y="454" width="40" height="40" as="geometry"/>
                </mxCell>
                <mxCell id="102" value="" style="html=1;verticalLabelPosition=bottom;labelBackgroundColor=#ffffff;verticalAlign=top;shadow=0;dashed=0;strokeWidth=1;shape=mxgraph.ios7ui.iconGrid;fillColor=#000000;gridSize=3,3;" vertex="1" parent="1">
                    <mxGeometry x="59.5" y="454" width="40" height="40" as="geometry"/>
                </mxCell>
                <mxCell id="103" value="" style="html=1;verticalLabelPosition=bottom;labelBackgroundColor=#ffffff;verticalAlign=top;shadow=0;dashed=0;strokeWidth=1;shape=mxgraph.ios7ui.iconGrid;fillColor=#000000;gridSize=3,3;" vertex="1" parent="1">
                    <mxGeometry x="100.5" y="454" width="40" height="40" as="geometry"/>
                </mxCell>
                <mxCell id="104" value="" style="html=1;verticalLabelPosition=bottom;labelBackgroundColor=#ffffff;verticalAlign=top;shadow=0;dashed=0;strokeWidth=1;shape=mxgraph.ios7ui.iconGrid;fillColor=#000000;gridSize=3,3;" vertex="1" parent="1">
                    <mxGeometry x="141.5" y="454" width="40" height="40" as="geometry"/>
                </mxCell>
                <mxCell id="109" value="" style="html=1;verticalLabelPosition=bottom;labelBackgroundColor=#ffffff;verticalAlign=top;shadow=0;dashed=0;strokeWidth=1;shape=mxgraph.ios7ui.iconGrid;fillColor=#000000;gridSize=3,3;" vertex="1" parent="1">
                    <mxGeometry x="228.5" y="577" width="40" height="40" as="geometry"/>
                </mxCell>
                <mxCell id="110" value="" style="html=1;verticalLabelPosition=bottom;labelBackgroundColor=#ffffff;verticalAlign=top;shadow=0;dashed=0;strokeWidth=1;shape=mxgraph.ios7ui.iconGrid;fillColor=#000000;gridSize=3,3;" vertex="1" parent="1">
                    <mxGeometry x="269.5" y="577" width="40" height="40" as="geometry"/>
                </mxCell>
                <mxCell id="111" value="" style="html=1;verticalLabelPosition=bottom;labelBackgroundColor=#ffffff;verticalAlign=top;shadow=0;dashed=0;strokeWidth=1;shape=mxgraph.ios7ui.iconGrid;fillColor=#000000;gridSize=3,3;" vertex="1" parent="1">
                    <mxGeometry x="310.5" y="577" width="40" height="40" as="geometry"/>
                </mxCell>
                <mxCell id="112" value="" style="html=1;verticalLabelPosition=bottom;labelBackgroundColor=#ffffff;verticalAlign=top;shadow=0;dashed=0;strokeWidth=1;shape=mxgraph.ios7ui.iconGrid;fillColor=#000000;gridSize=3,3;" vertex="1" parent="1">
                    <mxGeometry x="351.5" y="577" width="40" height="40" as="geometry"/>
                </mxCell>
                <mxCell id="113" value="" style="html=1;verticalLabelPosition=bottom;labelBackgroundColor=#ffffff;verticalAlign=top;shadow=0;dashed=0;strokeWidth=1;shape=mxgraph.ios7ui.iconGrid;fillColor=#000000;gridSize=3,3;" vertex="1" parent="1">
                    <mxGeometry x="228.5" y="536" width="40" height="40" as="geometry"/>
                </mxCell>
                <mxCell id="114" value="" style="html=1;verticalLabelPosition=bottom;labelBackgroundColor=#ffffff;verticalAlign=top;shadow=0;dashed=0;strokeWidth=1;shape=mxgraph.ios7ui.iconGrid;fillColor=#000000;gridSize=3,3;" vertex="1" parent="1">
                    <mxGeometry x="269.5" y="536" width="40" height="40" as="geometry"/>
                </mxCell>
                <mxCell id="115" value="" style="html=1;verticalLabelPosition=bottom;labelBackgroundColor=#ffffff;verticalAlign=top;shadow=0;dashed=0;strokeWidth=1;shape=mxgraph.ios7ui.iconGrid;fillColor=#000000;gridSize=3,3;" vertex="1" parent="1">
                    <mxGeometry x="310.5" y="536" width="40" height="40" as="geometry"/>
                </mxCell>
                <mxCell id="116" value="" style="html=1;verticalLabelPosition=bottom;labelBackgroundColor=#ffffff;verticalAlign=top;shadow=0;dashed=0;strokeWidth=1;shape=mxgraph.ios7ui.iconGrid;fillColor=#000000;gridSize=3,3;" vertex="1" parent="1">
                    <mxGeometry x="351.5" y="536" width="40" height="40" as="geometry"/>
                </mxCell>
                <mxCell id="117" value="" style="html=1;verticalLabelPosition=bottom;labelBackgroundColor=#ffffff;verticalAlign=top;shadow=0;dashed=0;strokeWidth=1;shape=mxgraph.ios7ui.iconGrid;fillColor=#000000;gridSize=3,3;" vertex="1" parent="1">
                    <mxGeometry x="228.5" y="495" width="40" height="40" as="geometry"/>
                </mxCell>
                <mxCell id="118" value="" style="html=1;verticalLabelPosition=bottom;labelBackgroundColor=#ffffff;verticalAlign=top;shadow=0;dashed=0;strokeWidth=1;shape=mxgraph.ios7ui.iconGrid;fillColor=#000000;gridSize=3,3;" vertex="1" parent="1">
                    <mxGeometry x="269.5" y="495" width="40" height="40" as="geometry"/>
                </mxCell>
                <mxCell id="119" value="" style="html=1;verticalLabelPosition=bottom;labelBackgroundColor=#ffffff;verticalAlign=top;shadow=0;dashed=0;strokeWidth=1;shape=mxgraph.ios7ui.iconGrid;fillColor=#000000;gridSize=3,3;" vertex="1" parent="1">
                    <mxGeometry x="310.5" y="495" width="40" height="40" as="geometry"/>
                </mxCell>
                <mxCell id="120" value="" style="html=1;verticalLabelPosition=bottom;labelBackgroundColor=#ffffff;verticalAlign=top;shadow=0;dashed=0;strokeWidth=1;shape=mxgraph.ios7ui.iconGrid;fillColor=#000000;gridSize=3,3;" vertex="1" parent="1">
                    <mxGeometry x="351.5" y="495" width="40" height="40" as="geometry"/>
                </mxCell>
                <mxCell id="121" value="" style="html=1;verticalLabelPosition=bottom;labelBackgroundColor=#ffffff;verticalAlign=top;shadow=0;dashed=0;strokeWidth=1;shape=mxgraph.ios7ui.iconGrid;fillColor=#000000;gridSize=3,3;" vertex="1" parent="1">
                    <mxGeometry x="228.5" y="454" width="40" height="40" as="geometry"/>
                </mxCell>
                <mxCell id="122" value="" style="html=1;verticalLabelPosition=bottom;labelBackgroundColor=#ffffff;verticalAlign=top;shadow=0;dashed=0;strokeWidth=1;shape=mxgraph.ios7ui.iconGrid;fillColor=#000000;gridSize=3,3;" vertex="1" parent="1">
                    <mxGeometry x="269.5" y="454" width="40" height="40" as="geometry"/>
                </mxCell>
                <mxCell id="123" value="" style="html=1;verticalLabelPosition=bottom;labelBackgroundColor=#ffffff;verticalAlign=top;shadow=0;dashed=0;strokeWidth=1;shape=mxgraph.ios7ui.iconGrid;fillColor=#000000;gridSize=3,3;" vertex="1" parent="1">
                    <mxGeometry x="310.5" y="454" width="40" height="40" as="geometry"/>
                </mxCell>
                <mxCell id="124" value="" style="html=1;verticalLabelPosition=bottom;labelBackgroundColor=#ffffff;verticalAlign=top;shadow=0;dashed=0;strokeWidth=1;shape=mxgraph.ios7ui.iconGrid;fillColor=#000000;gridSize=3,3;" vertex="1" parent="1">
                    <mxGeometry x="351.5" y="454" width="40" height="40" as="geometry"/>
                </mxCell>
                <mxCell id="162" value="&lt;b&gt;&lt;font style=&quot;font-size: 24px;&quot;&gt;10:00&lt;/font&gt;&lt;/b&gt;" style="text;html=1;align=center;verticalAlign=middle;resizable=0;points=[];autosize=1;strokeColor=none;fillColor=none;" vertex="1" parent="1">
                    <mxGeometry x="100" y="395" width="80" height="40" as="geometry"/>
                </mxCell>
                <mxCell id="163" value="&lt;b&gt;&lt;font style=&quot;font-size: 24px;&quot;&gt;10:00&lt;/font&gt;&lt;/b&gt;" style="text;html=1;align=center;verticalAlign=middle;resizable=0;points=[];autosize=1;strokeColor=none;fillColor=none;" vertex="1" parent="1">
                    <mxGeometry x="300" y="395" width="80" height="40" as="geometry"/>
                </mxCell>
                <mxCell id="165" value="EDITOR MODAL" style="text;html=1;align=center;verticalAlign=middle;resizable=0;points=[];autosize=1;strokeColor=none;fillColor=none;" vertex="1" parent="1">
                    <mxGeometry x="475" y="710" width="110" height="30" as="geometry"/>
                </mxCell>
                <mxCell id="169" value="" style="html=1;verticalLabelPosition=bottom;labelBackgroundColor=#ffffff;verticalAlign=top;shadow=0;dashed=0;strokeWidth=1;shape=mxgraph.ios7ui.iconGrid;fillColor=#000000;gridSize=3,3;" vertex="1" parent="1">
                    <mxGeometry x="448.5" y="579.5" width="40" height="40" as="geometry"/>
                </mxCell>
                <mxCell id="170" value="" style="html=1;verticalLabelPosition=bottom;labelBackgroundColor=#ffffff;verticalAlign=top;shadow=0;dashed=0;strokeWidth=1;shape=mxgraph.ios7ui.iconGrid;fillColor=#000000;gridSize=3,3;" vertex="1" parent="1">
                    <mxGeometry x="489.5" y="579.5" width="40" height="40" as="geometry"/>
                </mxCell>
                <mxCell id="171" value="" style="html=1;verticalLabelPosition=bottom;labelBackgroundColor=#ffffff;verticalAlign=top;shadow=0;dashed=0;strokeWidth=1;shape=mxgraph.ios7ui.iconGrid;fillColor=#000000;gridSize=3,3;" vertex="1" parent="1">
                    <mxGeometry x="530.5" y="579.5" width="40" height="40" as="geometry"/>
                </mxCell>
                <mxCell id="172" value="" style="html=1;verticalLabelPosition=bottom;labelBackgroundColor=#ffffff;verticalAlign=top;shadow=0;dashed=0;strokeWidth=1;shape=mxgraph.ios7ui.iconGrid;fillColor=#000000;gridSize=3,3;" vertex="1" parent="1">
                    <mxGeometry x="571.5" y="579.5" width="40" height="40" as="geometry"/>
                </mxCell>
                <mxCell id="173" value="" style="html=1;verticalLabelPosition=bottom;labelBackgroundColor=#ffffff;verticalAlign=top;shadow=0;dashed=0;strokeWidth=1;shape=mxgraph.ios7ui.iconGrid;fillColor=#000000;gridSize=3,3;" vertex="1" parent="1">
                    <mxGeometry x="448.5" y="538.5" width="40" height="40" as="geometry"/>
                </mxCell>
                <mxCell id="174" value="" style="html=1;verticalLabelPosition=bottom;labelBackgroundColor=#ffffff;verticalAlign=top;shadow=0;dashed=0;strokeWidth=1;shape=mxgraph.ios7ui.iconGrid;fillColor=#000000;gridSize=3,3;" vertex="1" parent="1">
                    <mxGeometry x="489.5" y="538.5" width="40" height="40" as="geometry"/>
                </mxCell>
                <mxCell id="175" value="" style="html=1;verticalLabelPosition=bottom;labelBackgroundColor=#ffffff;verticalAlign=top;shadow=0;dashed=0;strokeWidth=1;shape=mxgraph.ios7ui.iconGrid;fillColor=#000000;gridSize=3,3;" vertex="1" parent="1">
                    <mxGeometry x="530.5" y="538.5" width="40" height="40" as="geometry"/>
                </mxCell>
                <mxCell id="176" value="" style="html=1;verticalLabelPosition=bottom;labelBackgroundColor=#ffffff;verticalAlign=top;shadow=0;dashed=0;strokeWidth=1;shape=mxgraph.ios7ui.iconGrid;fillColor=#000000;gridSize=3,3;" vertex="1" parent="1">
                    <mxGeometry x="571.5" y="538.5" width="40" height="40" as="geometry"/>
                </mxCell>
                <mxCell id="177" value="" style="html=1;verticalLabelPosition=bottom;labelBackgroundColor=#ffffff;verticalAlign=top;shadow=0;dashed=0;strokeWidth=1;shape=mxgraph.ios7ui.iconGrid;fillColor=#000000;gridSize=3,3;" vertex="1" parent="1">
                    <mxGeometry x="448.5" y="497.5" width="40" height="40" as="geometry"/>
                </mxCell>
                <mxCell id="178" value="" style="html=1;verticalLabelPosition=bottom;labelBackgroundColor=#ffffff;verticalAlign=top;shadow=0;dashed=0;strokeWidth=1;shape=mxgraph.ios7ui.iconGrid;fillColor=#000000;gridSize=3,3;" vertex="1" parent="1">
                    <mxGeometry x="489.5" y="497.5" width="40" height="40" as="geometry"/>
                </mxCell>
                <mxCell id="179" value="" style="html=1;verticalLabelPosition=bottom;labelBackgroundColor=#ffffff;verticalAlign=top;shadow=0;dashed=0;strokeWidth=1;shape=mxgraph.ios7ui.iconGrid;fillColor=#000000;gridSize=3,3;" vertex="1" parent="1">
                    <mxGeometry x="530.5" y="497.5" width="40" height="40" as="geometry"/>
                </mxCell>
                <mxCell id="180" value="" style="html=1;verticalLabelPosition=bottom;labelBackgroundColor=#ffffff;verticalAlign=top;shadow=0;dashed=0;strokeWidth=1;shape=mxgraph.ios7ui.iconGrid;fillColor=#000000;gridSize=3,3;" vertex="1" parent="1">
                    <mxGeometry x="571.5" y="497.5" width="40" height="40" as="geometry"/>
                </mxCell>
                <mxCell id="181" value="" style="html=1;verticalLabelPosition=bottom;labelBackgroundColor=#ffffff;verticalAlign=top;shadow=0;dashed=0;strokeWidth=1;shape=mxgraph.ios7ui.iconGrid;fillColor=#000000;gridSize=3,3;" vertex="1" parent="1">
                    <mxGeometry x="448.5" y="456.5" width="40" height="40" as="geometry"/>
                </mxCell>
                <mxCell id="182" value="" style="html=1;verticalLabelPosition=bottom;labelBackgroundColor=#ffffff;verticalAlign=top;shadow=0;dashed=0;strokeWidth=1;shape=mxgraph.ios7ui.iconGrid;fillColor=#000000;gridSize=3,3;" vertex="1" parent="1">
                    <mxGeometry x="489.5" y="456.5" width="40" height="40" as="geometry"/>
                </mxCell>
                <mxCell id="183" value="" style="html=1;verticalLabelPosition=bottom;labelBackgroundColor=#ffffff;verticalAlign=top;shadow=0;dashed=0;strokeWidth=1;shape=mxgraph.ios7ui.iconGrid;fillColor=#000000;gridSize=3,3;" vertex="1" parent="1">
                    <mxGeometry x="530.5" y="456.5" width="40" height="40" as="geometry"/>
                </mxCell>
                <mxCell id="184" value="" style="html=1;verticalLabelPosition=bottom;labelBackgroundColor=#ffffff;verticalAlign=top;shadow=0;dashed=0;strokeWidth=1;shape=mxgraph.ios7ui.iconGrid;fillColor=#000000;gridSize=3,3;" vertex="1" parent="1">
                    <mxGeometry x="571.5" y="456.5" width="40" height="40" as="geometry"/>
                </mxCell>
                <mxCell id="191" value="&lt;b&gt;&lt;font style=&quot;font-size: 24px;&quot;&gt;10:00&lt;/font&gt;&lt;/b&gt;" style="text;html=1;align=center;verticalAlign=middle;resizable=0;points=[];autosize=1;strokeColor=none;fillColor=none;" vertex="1" parent="1">
                    <mxGeometry x="530" y="391.5" width="80" height="40" as="geometry"/>
                </mxCell>
                <mxCell id="216" value="" style="rounded=1;whiteSpace=wrap;html=1;arcSize=6;" vertex="1" parent="1">
                    <mxGeometry x="460" y="413.75" width="150" height="270" as="geometry"/>
                </mxCell>
                <mxCell id="221" value="" style="rounded=1;whiteSpace=wrap;html=1;" vertex="1" parent="1">
                    <mxGeometry x="468" y="420" width="40" height="39" as="geometry"/>
                </mxCell>
                <mxCell id="222" value="" style="rounded=1;whiteSpace=wrap;html=1;" vertex="1" parent="1">
                    <mxGeometry x="515" y="420" width="40" height="39" as="geometry"/>
                </mxCell>
                <mxCell id="223" value="" style="rounded=1;whiteSpace=wrap;html=1;" vertex="1" parent="1">
                    <mxGeometry x="561" y="420" width="40" height="39" as="geometry"/>
                </mxCell>
                <mxCell id="224" value="" style="rounded=1;whiteSpace=wrap;html=1;" vertex="1" parent="1">
                    <mxGeometry x="468.5" y="465" width="40" height="39" as="geometry"/>
                </mxCell>
                <mxCell id="225" value="" style="rounded=1;whiteSpace=wrap;html=1;" vertex="1" parent="1">
                    <mxGeometry x="515.5" y="465" width="40" height="39" as="geometry"/>
                </mxCell>
                <mxCell id="226" value="" style="rounded=1;whiteSpace=wrap;html=1;" vertex="1" parent="1">
                    <mxGeometry x="561.5" y="465" width="40" height="39" as="geometry"/>
                </mxCell>
                <mxCell id="227" value="" style="rounded=1;whiteSpace=wrap;html=1;" vertex="1" parent="1">
                    <mxGeometry x="468.75" y="511" width="40" height="39" as="geometry"/>
                </mxCell>
                <mxCell id="228" value="" style="rounded=1;whiteSpace=wrap;html=1;" vertex="1" parent="1">
                    <mxGeometry x="515.75" y="511" width="40" height="39" as="geometry"/>
                </mxCell>
                <mxCell id="229" value="" style="rounded=1;whiteSpace=wrap;html=1;" vertex="1" parent="1">
                    <mxGeometry x="561.75" y="511" width="40" height="39" as="geometry"/>
                </mxCell>
                <mxCell id="230" value="" style="rounded=1;whiteSpace=wrap;html=1;" vertex="1" parent="1">
                    <mxGeometry x="469.25" y="556" width="40" height="39" as="geometry"/>
                </mxCell>
                <mxCell id="231" value="" style="rounded=1;whiteSpace=wrap;html=1;" vertex="1" parent="1">
                    <mxGeometry x="516.25" y="556" width="40" height="39" as="geometry"/>
                </mxCell>
                <mxCell id="232" value="" style="rounded=1;whiteSpace=wrap;html=1;" vertex="1" parent="1">
                    <mxGeometry x="562.25" y="556" width="40" height="39" as="geometry"/>
                </mxCell>
                <mxCell id="239" value="" style="shape=mxgraph.signs.animals.bear_1;html=1;pointerEvents=1;fillColor=#000000;strokeColor=none;verticalLabelPosition=bottom;verticalAlign=top;align=center;" vertex="1" parent="1">
                    <mxGeometry x="478.5" y="435" width="20" height="12" as="geometry"/>
                </mxCell>
                <mxCell id="240" value="" style="shape=mxgraph.signs.animals.deer_2;html=1;pointerEvents=1;fillColor=#000000;strokeColor=none;verticalLabelPosition=bottom;verticalAlign=top;align=center;" vertex="1" parent="1">
                    <mxGeometry x="518" y="426" width="30" height="27" as="geometry"/>
                </mxCell>
                <mxCell id="241" value="" style="shape=mxgraph.signs.animals.sloth;html=1;pointerEvents=1;fillColor=#000000;strokeColor=none;verticalLabelPosition=bottom;verticalAlign=top;align=center;" vertex="1" parent="1">
                    <mxGeometry x="570.5" y="432" width="20" height="21" as="geometry"/>
                </mxCell>
                <mxCell id="242" value="" style="html=1;verticalLabelPosition=bottom;labelBackgroundColor=#ffffff;verticalAlign=top;shadow=0;dashed=0;strokeWidth=1;shape=mxgraph.ios7ui.iconGrid;fillColor=#000000;gridSize=3,3;" vertex="1" parent="1">
                    <mxGeometry x="18.5" y="618" width="40" height="40" as="geometry"/>
                </mxCell>
                <mxCell id="243" value="" style="html=1;verticalLabelPosition=bottom;labelBackgroundColor=#ffffff;verticalAlign=top;shadow=0;dashed=0;strokeWidth=1;shape=mxgraph.ios7ui.iconGrid;fillColor=#000000;gridSize=3,3;" vertex="1" parent="1">
                    <mxGeometry x="59.5" y="618" width="40" height="40" as="geometry"/>
                </mxCell>
                <mxCell id="244" value="" style="html=1;verticalLabelPosition=bottom;labelBackgroundColor=#ffffff;verticalAlign=top;shadow=0;dashed=0;strokeWidth=1;shape=mxgraph.ios7ui.iconGrid;fillColor=#000000;gridSize=3,3;" vertex="1" parent="1">
                    <mxGeometry x="100.5" y="618" width="40" height="40" as="geometry"/>
                </mxCell>
                <mxCell id="245" value="" style="html=1;verticalLabelPosition=bottom;labelBackgroundColor=#ffffff;verticalAlign=top;shadow=0;dashed=0;strokeWidth=1;shape=mxgraph.ios7ui.iconGrid;fillColor=#000000;gridSize=3,3;" vertex="1" parent="1">
                    <mxGeometry x="141.5" y="618" width="40" height="40" as="geometry"/>
                </mxCell>
                <mxCell id="250" value="" style="html=1;verticalLabelPosition=bottom;labelBackgroundColor=#ffffff;verticalAlign=top;shadow=0;dashed=0;strokeWidth=1;shape=mxgraph.ios7ui.iconGrid;fillColor=#000000;gridSize=3,3;" vertex="1" parent="1">
                    <mxGeometry x="228.5" y="618" width="40" height="40" as="geometry"/>
                </mxCell>
                <mxCell id="251" value="" style="html=1;verticalLabelPosition=bottom;labelBackgroundColor=#ffffff;verticalAlign=top;shadow=0;dashed=0;strokeWidth=1;shape=mxgraph.ios7ui.iconGrid;fillColor=#000000;gridSize=3,3;" vertex="1" parent="1">
                    <mxGeometry x="269.5" y="618" width="40" height="40" as="geometry"/>
                </mxCell>
                <mxCell id="252" value="" style="html=1;verticalLabelPosition=bottom;labelBackgroundColor=#ffffff;verticalAlign=top;shadow=0;dashed=0;strokeWidth=1;shape=mxgraph.ios7ui.iconGrid;fillColor=#000000;gridSize=3,3;" vertex="1" parent="1">
                    <mxGeometry x="310.5" y="618" width="40" height="40" as="geometry"/>
                </mxCell>
                <mxCell id="253" value="" style="html=1;verticalLabelPosition=bottom;labelBackgroundColor=#ffffff;verticalAlign=top;shadow=0;dashed=0;strokeWidth=1;shape=mxgraph.ios7ui.iconGrid;fillColor=#000000;gridSize=3,3;" vertex="1" parent="1">
                    <mxGeometry x="351.5" y="618" width="40" height="40" as="geometry"/>
                </mxCell>
                <mxCell id="268" value="" style="shape=mxgraph.signs.animals.seal;html=1;pointerEvents=1;fillColor=#000000;strokeColor=none;verticalLabelPosition=bottom;verticalAlign=top;align=center;" vertex="1" parent="1">
                    <mxGeometry x="478" y="472.5" width="20" height="25" as="geometry"/>
                </mxCell>
                <mxCell id="269" value="" style="shape=mxgraph.signs.animals.fish_hatchery;html=1;pointerEvents=1;fillColor=#000000;strokeColor=none;verticalLabelPosition=bottom;verticalAlign=top;align=center;" vertex="1" parent="1">
                    <mxGeometry x="522" y="472.5" width="30" height="29" as="geometry"/>
                </mxCell>
                <mxCell id="270" value="" style="shape=mxgraph.signs.animals.no_dogs;html=1;pointerEvents=1;fillColor=#000000;strokeColor=none;verticalLabelPosition=bottom;verticalAlign=top;align=center;" vertex="1" parent="1">
                    <mxGeometry x="568.5" y="471" width="25" height="28" as="geometry"/>
                </mxCell>
                <mxCell id="279" value="" style="rounded=0;whiteSpace=wrap;html=1;fillColor=#000000;" vertex="1" parent="1">
                    <mxGeometry x="240" y="407.25" width="20" height="2.5" as="geometry"/>
                </mxCell>
                <mxCell id="280" value="" style="rounded=0;whiteSpace=wrap;html=1;fillColor=#000000;" vertex="1" parent="1">
                    <mxGeometry x="240" y="413.75" width="20" height="2.5" as="geometry"/>
                </mxCell>
                <mxCell id="281" value="" style="rounded=0;whiteSpace=wrap;html=1;fillColor=#000000;" vertex="1" parent="1">
                    <mxGeometry x="240" y="420.25" width="20" height="2.5" as="geometry"/>
                </mxCell>
                <mxCell id="282" value="" style="rounded=0;whiteSpace=wrap;html=1;fillColor=#000000;" vertex="1" parent="1">
                    <mxGeometry x="30" y="407.25" width="20" height="2.5" as="geometry"/>
                </mxCell>
                <mxCell id="283" value="" style="rounded=0;whiteSpace=wrap;html=1;fillColor=#000000;" vertex="1" parent="1">
                    <mxGeometry x="30" y="413.75" width="20" height="2.5" as="geometry"/>
                </mxCell>
                <mxCell id="284" value="" style="rounded=0;whiteSpace=wrap;html=1;fillColor=#000000;" vertex="1" parent="1">
                    <mxGeometry x="30" y="420.25" width="20" height="2.5" as="geometry"/>
                </mxCell>
                <mxCell id="285" value="" style="shape=actor;whiteSpace=wrap;html=1;fillColor=#000000;" vertex="1" parent="1">
                    <mxGeometry x="479.25" y="520.5" width="20" height="20" as="geometry"/>
                </mxCell>
                <mxCell id="287" value="" style="shape=mxgraph.signs.healthcare.physical_therapy;html=1;pointerEvents=1;fillColor=#000000;strokeColor=none;verticalLabelPosition=bottom;verticalAlign=top;align=center;" vertex="1" parent="1">
                    <mxGeometry x="525" y="520.5" width="20" height="20" as="geometry"/>
                </mxCell>
                <mxCell id="302" value="" style="shape=flexArrow;endArrow=classic;html=1;endWidth=12.121212121212121;endSize=5.236363636363637;fillColor=#000000;" edge="1" parent="1">
                    <mxGeometry width="50" height="50" relative="1" as="geometry">
                        <mxPoint x="273.37" y="289.64" as="sourcePoint"/>
                        <mxPoint x="244.62" y="289.64" as="targetPoint"/>
                    </mxGeometry>
                </mxCell>
                <mxCell id="303" value="" style="shape=flexArrow;endArrow=classic;html=1;endWidth=12.121212121212121;endSize=5.236363636363637;fillColor=#000000;" edge="1" parent="1">
                    <mxGeometry width="50" height="50" relative="1" as="geometry">
                        <mxPoint x="346.5" y="289.64" as="sourcePoint"/>
                        <mxPoint x="375.5" y="289.64" as="targetPoint"/>
                    </mxGeometry>
                </mxCell>
                <mxCell id="312" value="" style="ellipse;whiteSpace=wrap;html=1;aspect=fixed;" vertex="1" parent="1">
                    <mxGeometry x="516.25" y="638" width="40" height="40" as="geometry"/>
                </mxCell>
                <mxCell id="313" value="" style="ellipse;whiteSpace=wrap;html=1;aspect=fixed;" vertex="1" parent="1">
                    <mxGeometry x="466.25" y="638" width="40" height="40" as="geometry"/>
                </mxCell>
                <mxCell id="314" value="" style="ellipse;whiteSpace=wrap;html=1;aspect=fixed;" vertex="1" parent="1">
                    <mxGeometry x="566.25" y="638" width="40" height="40" as="geometry"/>
                </mxCell>
                <mxCell id="316" value="" style="shape=flexArrow;endArrow=classic;html=1;endWidth=12.121212121212121;endSize=5.236363636363637;fillColor=#000000;" edge="1" parent="1">
                    <mxGeometry width="50" height="50" relative="1" as="geometry">
                        <mxPoint x="499.62" y="657.64" as="sourcePoint"/>
                        <mxPoint x="470.87" y="657.64" as="targetPoint"/>
                    </mxGeometry>
                </mxCell>
                <mxCell id="317" value="" style="shape=flexArrow;endArrow=classic;html=1;endWidth=12.121212121212121;endSize=5.236363636363637;fillColor=#000000;" edge="1" parent="1">
                    <mxGeometry width="50" height="50" relative="1" as="geometry">
                        <mxPoint x="572.75" y="657.64" as="sourcePoint"/>
                        <mxPoint x="601.75" y="657.64" as="targetPoint"/>
                    </mxGeometry>
                </mxCell>
                <mxCell id="318" value="" style="verticalLabelPosition=bottom;verticalAlign=top;html=1;shape=mxgraph.basic.x;fillColor=#000000;" vertex="1" parent="1">
                    <mxGeometry x="526.25" y="648.5" width="20" height="19" as="geometry"/>
                </mxCell>
                <mxCell id="319" value="" style="verticalLabelPosition=bottom;verticalAlign=top;html=1;shape=mxgraph.basic.x;fillColor=#000000;" vertex="1" parent="1">
                    <mxGeometry x="300" y="281" width="20" height="19" as="geometry"/>
                </mxCell>
                <mxCell id="327" value="WIN" style="text;html=1;align=center;verticalAlign=middle;resizable=0;points=[];autosize=1;strokeColor=none;fillColor=none;" vertex="1" parent="1">
                    <mxGeometry x="715" y="710" width="50" height="30" as="geometry"/>
                </mxCell>
                <mxCell id="329" value="LOSE" style="text;html=1;align=center;verticalAlign=middle;resizable=0;points=[];autosize=1;strokeColor=none;fillColor=none;" vertex="1" parent="1">
                    <mxGeometry x="70" y="1070" width="60" height="30" as="geometry"/>
                </mxCell>
                <mxCell id="331" value="&lt;b&gt;&lt;font style=&quot;font-size: 18px;&quot;&gt;LEVEL 1-1&lt;/font&gt;&lt;/b&gt;" style="text;html=1;align=center;verticalAlign=middle;resizable=0;points=[];autosize=1;strokeColor=none;fillColor=none;" vertex="1" parent="1">
                    <mxGeometry x="220" y="658" width="110" height="40" as="geometry"/>
                </mxCell>
                <mxCell id="332" value="&lt;b&gt;&lt;font style=&quot;font-size: 18px;&quot;&gt;LEVEL 1-1&lt;/font&gt;&lt;/b&gt;" style="text;html=1;align=center;verticalAlign=middle;resizable=0;points=[];autosize=1;strokeColor=none;fillColor=none;" vertex="1" parent="1">
                    <mxGeometry x="10" y="658" width="110" height="40" as="geometry"/>
                </mxCell>
                <mxCell id="333" value="" style="rounded=1;whiteSpace=wrap;html=1;arcSize=5;fillColor=#777777;" vertex="1" parent="1">
                    <mxGeometry x="650" y="380" width="180" height="320" as="geometry"/>
                </mxCell>
                <mxCell id="334" value="&lt;b&gt;&lt;i&gt;&lt;font style=&quot;font-size: 36px;&quot;&gt;WIN!&lt;/font&gt;&lt;/i&gt;&lt;/b&gt;" style="rounded=1;whiteSpace=wrap;html=1;" vertex="1" parent="1">
                    <mxGeometry x="660" y="460" width="160" height="50" as="geometry"/>
                </mxCell>
                <mxCell id="335" value="&lt;div style=&quot;text-align: justify;&quot;&gt;&lt;b style=&quot;background-color: transparent;&quot;&gt;&lt;font style=&quot;font-size: 18px;&quot;&gt;RETRY&lt;/font&gt;&lt;/b&gt;&lt;/div&gt;" style="rounded=1;whiteSpace=wrap;html=1;" vertex="1" parent="1">
                    <mxGeometry x="670" y="540" width="140" height="30" as="geometry"/>
                </mxCell>
                <mxCell id="336" value="&lt;span style=&quot;font-size: 18px;&quot;&gt;&lt;b&gt;MAIN MENU&lt;/b&gt;&lt;/span&gt;" style="rounded=1;whiteSpace=wrap;html=1;" vertex="1" parent="1">
                    <mxGeometry x="670" y="580" width="140" height="30" as="geometry"/>
                </mxCell>
                <mxCell id="337" value="&lt;b&gt;&lt;font style=&quot;font-size: 18px;&quot;&gt;NEXT&lt;/font&gt;&lt;/b&gt;" style="rounded=1;whiteSpace=wrap;html=1;" vertex="1" parent="1">
                    <mxGeometry x="670" y="620" width="140" height="30" as="geometry"/>
                </mxCell>
                <mxCell id="338" value="" style="shape=mxgraph.signs.animals.moose;html=1;pointerEvents=1;fillColor=#000000;strokeColor=none;verticalLabelPosition=bottom;verticalAlign=top;align=center;" vertex="1" parent="1">
                    <mxGeometry x="691" y="396" width="98" height="65" as="geometry"/>
                </mxCell>
                <mxCell id="339" value="" style="verticalLabelPosition=bottom;verticalAlign=top;html=1;shape=mxgraph.basic.star" vertex="1" parent="1">
                    <mxGeometry x="675" y="499" width="30" height="25.5" as="geometry"/>
                </mxCell>
                <mxCell id="340" value="" style="verticalLabelPosition=bottom;verticalAlign=top;html=1;shape=mxgraph.basic.star" vertex="1" parent="1">
                    <mxGeometry x="725" y="499" width="30" height="25.5" as="geometry"/>
                </mxCell>
                <mxCell id="341" value="" style="verticalLabelPosition=bottom;verticalAlign=top;html=1;shape=mxgraph.basic.star" vertex="1" parent="1">
                    <mxGeometry x="775" y="499" width="30" height="25.5" as="geometry"/>
                </mxCell>
                <mxCell id="342" value="" style="rounded=1;whiteSpace=wrap;html=1;arcSize=5;fillColor=#777777;" vertex="1" parent="1">
                    <mxGeometry x="10" y="740" width="180" height="320" as="geometry"/>
                </mxCell>
                <mxCell id="343" value="&lt;b&gt;&lt;i&gt;&lt;font style=&quot;font-size: 36px;&quot;&gt;LOSE...&lt;/font&gt;&lt;/i&gt;&lt;/b&gt;" style="rounded=1;whiteSpace=wrap;html=1;" vertex="1" parent="1">
                    <mxGeometry x="20" y="820" width="160" height="50" as="geometry"/>
                </mxCell>
                <mxCell id="344" value="&lt;div style=&quot;text-align: justify;&quot;&gt;&lt;b style=&quot;background-color: transparent;&quot;&gt;&lt;font style=&quot;font-size: 18px;&quot;&gt;RETRY&lt;/font&gt;&lt;/b&gt;&lt;/div&gt;" style="rounded=1;whiteSpace=wrap;html=1;" vertex="1" parent="1">
                    <mxGeometry x="30" y="900" width="140" height="30" as="geometry"/>
                </mxCell>
                <mxCell id="345" value="&lt;span style=&quot;font-size: 18px;&quot;&gt;&lt;b&gt;MAIN MENU&lt;/b&gt;&lt;/span&gt;" style="rounded=1;whiteSpace=wrap;html=1;" vertex="1" parent="1">
                    <mxGeometry x="30" y="940" width="140" height="30" as="geometry"/>
                </mxCell>
                <mxCell id="346" value="&lt;b&gt;&lt;font style=&quot;font-size: 18px;&quot;&gt;BACK&lt;/font&gt;&lt;/b&gt;" style="rounded=1;whiteSpace=wrap;html=1;" vertex="1" parent="1">
                    <mxGeometry x="30" y="980" width="140" height="30" as="geometry"/>
                </mxCell>
                <mxCell id="347" value="" style="shape=mxgraph.signs.animals.moose;html=1;pointerEvents=1;fillColor=#000000;strokeColor=none;verticalLabelPosition=bottom;verticalAlign=top;align=center;" vertex="1" parent="1">
                    <mxGeometry x="51" y="756" width="98" height="65" as="geometry"/>
                </mxCell>
                <mxCell id="354" value="" style="shape=mxgraph.signs.nature.sun_3;html=1;pointerEvents=1;fillColor=#000000;strokeColor=none;verticalLabelPosition=bottom;verticalAlign=top;align=center;" vertex="1" parent="1">
                    <mxGeometry x="566.5" y="516.5" width="30" height="28" as="geometry"/>
                </mxCell>
                <mxCell id="355" value="&lt;div style=&quot;text-align: justify;&quot;&gt;&lt;br&gt;&lt;/div&gt;" style="ellipse;whiteSpace=wrap;html=1;aspect=fixed;" vertex="1" parent="1">
                    <mxGeometry x="65" y="395" width="40" height="40" as="geometry"/>
                </mxCell>
                <mxCell id="357" value="" style="html=1;dashed=0;aspect=fixed;verticalLabelPosition=bottom;verticalAlign=top;align=center;shape=mxgraph.gmdl.edit;strokeColor=none;fillColor=#000000;shadow=0;sketch=0;" vertex="1" parent="1">
                    <mxGeometry x="75" y="405" width="20" height="20" as="geometry"/>
                </mxCell>
                <mxCell id="556" value="&lt;b&gt;&lt;font style=&quot;font-size: 18px;&quot;&gt;HELP&lt;/font&gt;&lt;/b&gt;" style="rounded=1;whiteSpace=wrap;html=1;" vertex="1" parent="1">
                    <mxGeometry x="30" y="290" width="140" height="30" as="geometry"/>
                </mxCell>
                <mxCell id="557" value="" style="rounded=1;whiteSpace=wrap;html=1;arcSize=5;fillColor=#777777;" vertex="1" parent="1">
                    <mxGeometry x="220" y="740" width="180" height="320" as="geometry"/>
                </mxCell>
                <mxCell id="558" value="HELP" style="text;html=1;align=center;verticalAlign=middle;resizable=0;points=[];autosize=1;strokeColor=none;fillColor=none;" vertex="1" parent="1">
                    <mxGeometry x="285" y="1068" width="50" height="30" as="geometry"/>
                </mxCell>
                <mxCell id="559" value="&lt;b&gt;&lt;i&gt;&lt;font style=&quot;font-size: 36px;&quot;&gt;HELP&lt;/font&gt;&lt;/i&gt;&lt;/b&gt;" style="rounded=1;whiteSpace=wrap;html=1;" vertex="1" parent="1">
                    <mxGeometry x="230" y="763.5" width="160" height="50" as="geometry"/>
                </mxCell>
                <mxCell id="564" value="&lt;b&gt;&lt;font style=&quot;font-size: 18px;&quot;&gt;BACK&lt;/font&gt;&lt;/b&gt;" style="rounded=1;whiteSpace=wrap;html=1;" vertex="1" parent="1">
                    <mxGeometry x="240" y="1000" width="140" height="30" as="geometry"/>
                </mxCell>
                <mxCell id="565" value="&lt;h2 style=&quot;margin-right: 2px; margin-left: 6px;&quot; data-end=&quot;75&quot; data-start=&quot;54&quot;&gt;&lt;span style=&quot;background-color: transparent; font-size: 12px; font-weight: normal;&quot;&gt;Infiltrate enemy territory, grab the Cheese, and return it safely to Base. Along the way, disable Traps and Lights to stay hidden from Patrols. Success relies on systematic sabotage&lt;/span&gt;&lt;/h2&gt;" style="rounded=1;whiteSpace=wrap;html=1;arcSize=6;align=left;spacing=0;verticalAlign=bottom;" vertex="1" parent="1">
                    <mxGeometry x="230" y="822" width="160" height="169" as="geometry"/>
                </mxCell>
            </root>
        </mxGraphModel>
    </diagram>
</mxfile>